<?xml version="1.0" encoding="iso-8859-1"?>
<!-- Generator: Adobe Illustrator 26.4.1, SVG Export Plug-In . SVG Version: 6.00 Build 0)  -->
<svg version="1.1" id="Layer_8" xmlns="http://www.w3.org/2000/svg" xmlns:xlink="http://www.w3.org/1999/xlink" x="0px" y="0px"
	 viewBox="0 0 1350.933 299.052" style="enable-background:new 0 0 1350.933 299.052;" xml:space="preserve">
<circle style="fill:none;stroke:#ED1C24;stroke-miterlimit:10;" cx="-1120.682" cy="217.012" r="18.787"/>
<g>
	<linearGradient id="SVGID_1_" gradientUnits="userSpaceOnUse" x1="19.2378" y1="168.0748" x2="302.2232" y2="168.0748">
		<stop  offset="0" style="stop-color:#037DFF"/>
		<stop  offset="1" style="stop-color:#1A5DD2"/>
	</linearGradient>
	<path style="fill:url(#SVGID_1_);" d="M224.029,75.411l-17.933,31.023c-3.048-4.119-6.399-8.001-10.012-11.614
		c-18.018-18.01-42.642-29.417-69.923-30.279h-0.001l0,0c-1.106-0.035-2.216-0.059-3.33-0.059
		c-28.614,0-54.505,11.597-73.254,30.338c-18.749,18.749-30.338,44.649-30.338,73.254c0,53.214,40.113,97.046,91.75,102.922
		c3.89,0.441,7.838,0.67,11.843,0.67c28.605,0,54.505-11.589,73.254-30.338c5.966-5.966,11.205-12.66,15.578-19.926l1.651-2.852
		l0.098-0.18l88.813-153.83h-59.356C235.098,64.541,227.918,68.684,224.029,75.411z M157.148,191.131l-0.041,0.057
		c-1.487,2.199-3.179,4.25-5.051,6.122c-7.944,7.944-19.107,12.669-31.372,12.05c-21.008-1.061-38.079-18.132-39.139-39.14
		c-0.619-12.265,4.106-23.427,12.05-31.371c7.486-7.486,17.817-12.112,29.235-12.112c11.418,0,21.748,4.626,29.226,12.112
		c0.67,0.67,1.316,1.357,1.929,2.068c0.082,0.09,0.163,0.188,0.245,0.278c5.708,6.582,10.598,13.895,14.508,21.778
		c1.375,2.772,1.381,6.021-0.025,8.778C166.272,176.536,161.968,184.477,157.148,191.131z"/>
	<circle style="fill:#F15A24;" cx="271.658" cy="241.102" r="30.565"/>
</g>
<g>
	<path style="fill:#25304C;" d="M665.357,205.056H562.245c0.889,11.818,4.727,21.222,11.525,28.216
		c6.792,6.892,15.509,10.337,26.145,10.337c8.272,0,15.117-1.969,20.535-5.909c5.318-3.937,11.373-11.227,18.168-21.863
		l28.067,15.661c-4.335,7.383-8.913,13.715-13.736,18.98c-4.827,5.271-9.998,9.603-15.512,12.999
		c-5.517,3.399-11.472,5.884-17.876,7.461c-6.4,1.574-13.345,2.364-20.827,2.364c-21.471,0-38.703-6.892-51.702-20.681
		c-12.999-13.886-19.499-32.299-19.499-55.247c0-22.749,6.301-41.163,18.908-55.247c12.704-13.886,29.544-20.829,50.52-20.829
		c21.172,0,37.913,6.747,50.225,20.238c12.209,13.394,18.317,31.957,18.317,55.692L665.357,205.056z M631.232,177.875
		c-4.631-17.726-15.808-26.59-33.534-26.59c-4.037,0-7.828,0.616-11.373,1.847s-6.773,3.004-9.675,5.318
		c-2.908,2.314-5.393,5.096-7.461,8.347c-2.068,3.25-3.645,6.941-4.727,11.077H631.232z"/>
	<path style="fill:#25304C;" d="M798.539,131.491v44.167c-7.585-9.252-14.38-15.605-20.385-19.054
		c-5.909-3.545-12.853-5.318-20.827-5.318c-12.508,0-22.898,4.383-31.171,13.147c-8.272,8.765-12.409,19.746-12.409,32.942
		c0,13.494,3.99,24.571,11.964,33.236c8.076,8.667,18.367,12.999,30.875,12.999c7.977,0,15.018-1.72,21.122-5.169
		c5.909-3.346,12.853-9.846,20.83-19.499v43.874c-13.494,6.991-26.985,10.487-40.475,10.487c-22.258,0-40.87-7.187-55.838-21.567
		c-14.971-14.477-22.453-32.449-22.453-53.916c0-21.471,7.582-39.591,22.749-54.363c15.164-14.772,33.777-22.158,55.838-22.158
		C772.54,121.299,785.931,124.696,798.539,131.491z"/>
	<g>
		<polygon style="fill:#25304C;" points="815.615,141.014 815.615,269.167 848.851,269.167 848.851,124.396 		"/>
		<path style="fill:#25304C;" d="M832.306,87.323c6.008,0,11.081-2.116,15.217-6.352c4.233-4.233,6.354-9.355,6.354-15.363
			c0-6.005-2.121-11.079-6.354-15.215c-4.236-4.233-9.358-6.352-15.363-6.352c-5.909,0-10.981,2.119-15.217,6.352
			c-4.233,4.236-6.35,9.258-6.35,15.067c0,6.108,2.118,11.278,6.35,15.511C821.179,85.207,826.301,87.323,832.306,87.323z"/>
	</g>
	<path style="fill:#25304C;" d="M474.117,49.479v92.5c-13.295-13.786-28.362-20.681-45.202-20.681
		c-19.403,0-35.506,7.238-48.306,21.715c-12.903,14.38-19.35,32.303-19.35,53.77c0,21.962,6.447,40.279,19.35,54.952
		c12.999,14.38,29.345,21.567,49.043,21.567c16.545,0,31.366-6.4,44.465-19.204v15.067h33.385V32.787L474.117,49.479z
		 M464.812,230.909c-7.585,8.468-17.531,12.701-29.843,12.701c-11.522,0-21.076-4.379-28.658-13.146
		c-7.386-8.664-11.077-19.891-11.077-33.68c0-12.9,3.788-23.732,11.373-32.498c7.681-8.664,17.232-12.999,28.661-12.999
		c12.11,0,21.959,4.284,29.544,12.852c7.582,8.765,11.373,19.892,11.373,33.383C476.185,211.014,472.394,222.142,464.812,230.909z"
		/>
	<path style="fill:#25304C;" d="M1024.585,121.299c-17.826,0-31.96,7.091-42.397,21.272c-9.454-14.181-22.307-21.272-38.553-21.272
		c-7.29,0-13.348,1.233-18.171,3.693c-4.531,2.364-9.995,6.895-16.398,13.59v-14.694l-33.236,16.618v128.661h33.236v-74.302
		c0-15.071,2.143-26.098,6.428-33.091c4.282-6.991,11.102-10.488,20.46-10.488c14.772,0,22.155,12.803,22.155,38.407v79.473h33.388
		v-74.302c0-15.266,2.09-26.344,6.276-33.239c4.186-6.892,10.86-10.34,20.015-10.34c7.88,0,13.541,2.906,16.989,8.715
		c3.346,5.713,5.022,15.461,5.022,29.247v79.918h33.385v-88.928C1073.183,140.945,1056.984,121.299,1024.585,121.299z"/>
	<path style="fill:#25304C;" d="M1206.072,135.597v6.382c-13.295-13.786-28.312-20.681-45.056-20.681
		c-19.4,0-35.549,7.19-48.452,21.567c-12.9,14.38-19.35,32.351-19.35,53.918c0,21.962,6.45,40.279,19.35,54.952
		c12.999,14.38,29.448,21.567,49.342,21.567c15.755,0,30.477-6.4,44.167-19.204v15.067h33.385V118.918h-0.026L1206.072,135.597z
		 M1196.768,230.909c-7.585,8.468-17.531,12.701-29.843,12.701c-11.519,0-21.073-4.379-28.655-13.146
		c-7.389-8.664-11.081-19.891-11.081-33.68c0-12.9,3.791-23.732,11.373-32.498c7.681-8.664,17.235-12.999,28.661-12.999
		c12.11,0,21.959,4.284,29.544,12.852c7.582,8.765,11.373,19.892,11.373,33.383C1208.141,211.014,1204.349,222.142,1196.768,230.909
		z"/>
	<polygon style="fill:#25304C;" points="1266.283,49.713 1266.283,269.167 1299.519,269.167 1299.519,33.095 	"/>
</g>
</svg>
